<svg id="Capa_1" data-name="Capa 1" xmlns="http://www.w3.org/2000/svg" viewBox="0 0 288 49.19"><defs><style>.cls-1{opacity:0.66;}.cls-2{fill:#fff;}</style></defs><g class="cls-1"><path class="cls-2" d="M202.77,3a3,3,0,0,1-.83,2.12,2.89,2.89,0,0,1-2.12.87h-13.1v33a3.85,3.85,0,0,1-.09.67,2.89,2.89,0,0,1-.79,1.45,2.92,2.92,0,0,1-2.08.83,3,3,0,0,1-2.12-.83,3.13,3.13,0,0,1-.87-2.12v-33H166.94a2.78,2.78,0,0,1-2.07-.87A2.86,2.86,0,0,1,164,3a2.92,2.92,0,0,1,.83-2.08A3,3,0,0,1,166.94,0h32.88a2.89,2.89,0,0,1,2.12.87A2.92,2.92,0,0,1,202.77,3Z"/></g><path class="cls-2" d="M236.06,4.63a2.73,2.73,0,0,0-.81,2v9.14a21.22,21.22,0,0,0-3.14-2.21A13.09,13.09,0,0,0,220,13a15.59,15.59,0,0,0-8,8,14.66,14.66,0,0,0,0,11.64,15.53,15.53,0,0,0,3.2,4.75,14.72,14.72,0,0,0,4.76,3.24,15.43,15.43,0,0,0,11.7.07,15.18,15.18,0,0,0,3.67-2.13v.53a2.78,2.78,0,1,0,5.56,0V6.6a2.73,2.73,0,0,0-.81-2A2.84,2.84,0,0,0,236.06,4.63Zm-.81,22.26a9.24,9.24,0,0,1-.73,3.64,9.58,9.58,0,0,1-5.06,5.06,9.63,9.63,0,0,1-7.36,0,9.48,9.48,0,0,1-3-2,9.7,9.7,0,0,1-2-3,9.13,9.13,0,0,1-.73-3.66,9.61,9.61,0,0,1,.73-3.7,9.84,9.84,0,0,1,2-3,9.44,9.44,0,0,1,6.74-2.77A9.22,9.22,0,0,1,232.33,20a9.79,9.79,0,0,1,2,3A10.75,10.75,0,0,1,235.25,26.89Z"/><path class="cls-2" d="M271.17,21a15.62,15.62,0,0,0-8-8,14,14,0,0,0-5.73-1.23h0a16.59,16.59,0,0,0-6,1.34,15.5,15.5,0,0,0-4.78,3.23,14.75,14.75,0,0,0-4.33,10.56,15.09,15.09,0,0,0,1.18,6,14.67,14.67,0,0,0,3.25,4.73,15,15,0,0,0,4.76,3.12,15.18,15.18,0,0,0,5.81,1.12A14.92,14.92,0,0,0,268,37.39a15.62,15.62,0,0,0,3.19-4.75,14.66,14.66,0,0,0,0-11.64Zm-4.33,5.87a9.17,9.17,0,0,1-.74,3.66,9.58,9.58,0,0,1-2,3,9.48,9.48,0,0,1-3,2,9.63,9.63,0,0,1-7.36,0,9.76,9.76,0,0,1-3-2,9.56,9.56,0,0,1-2-3,9.14,9.14,0,0,1-.74-3.66,9.4,9.4,0,0,1,.74-3.7,9.53,9.53,0,0,1,2-3,9.76,9.76,0,0,1,3-2,9.17,9.17,0,0,1,3.66-.73,9.58,9.58,0,0,1,3.7.73,9.67,9.67,0,0,1,3,2,9.56,9.56,0,0,1,2,3A9.44,9.44,0,0,1,266.84,26.87Z"/><path class="cls-2" d="M18.35,20.39A8.49,8.49,0,0,0,17.66,17a8.94,8.94,0,0,0-4.61-4.61,8.48,8.48,0,0,0-3.41-.69h-7a2.61,2.61,0,0,0-1.92.83A2.7,2.7,0,0,0,0,14.44V39.1a2.66,2.66,0,0,0,2.67,2.67A2.65,2.65,0,0,0,5.33,39.1v-10H9.64a8.48,8.48,0,0,0,3.41-.69,9.15,9.15,0,0,0,2.73-1.83,8.51,8.51,0,0,0,1.88-2.76A8.66,8.66,0,0,0,18.35,20.39ZM9.64,23.72H5.33V17.06H9.64A3.33,3.33,0,0,1,12,18a3.38,3.38,0,0,1,.73,1.08A3.2,3.2,0,0,1,13,20.39a3.11,3.11,0,0,1-.25,1.28A3.45,3.45,0,0,1,12,22.74a3.16,3.16,0,0,1-1.07.72A3.09,3.09,0,0,1,9.64,23.72Z"/><path class="cls-2" d="M134,36.44h-9.54v-22a2.61,2.61,0,0,0-.78-1.89,2.7,2.7,0,0,0-3.77,0,2.61,2.61,0,0,0-.78,1.89V39.1a2.66,2.66,0,0,0,2.66,2.67H134a2.67,2.67,0,1,0,0-5.33Z"/><path class="cls-2" d="M165.17,21a15,15,0,0,0-8-8,15,15,0,0,0-11.67,0,14.9,14.9,0,0,0-4.75,3.22A15.38,15.38,0,0,0,137.58,21a15,15,0,0,0,0,11.68,14.93,14.93,0,0,0,7.94,7.94,15,15,0,0,0,11.67,0A15.31,15.31,0,0,0,162,37.4a14.9,14.9,0,0,0,3.22-4.75,15,15,0,0,0,0-11.68ZM161,26.81a9.49,9.49,0,0,1-.75,3.76,9.2,9.2,0,0,1-2.07,3.06,10,10,0,0,1-3.09,2.06,9.7,9.7,0,0,1-10.58-2,9.61,9.61,0,0,1-2.05-3.07,9.8,9.8,0,0,1,0-7.52A9.9,9.9,0,0,1,144.54,20a9.32,9.32,0,0,1,3.06-2.06A9.7,9.7,0,0,1,158.2,20a9.7,9.7,0,0,1,2.07,3.09A9.48,9.48,0,0,1,161,26.81Z"/><path class="cls-2" d="M58.27,17.07h.62c6.66,0,13.33,0,20,0a5.88,5.88,0,0,0,6.06-4.3c.63-2,.65-4.48,1.09-6.54s.35-2.34-2-2.34a10.71,10.71,0,0,1-1.7,0c-1-.16-1.43.32-1.57,1.22-.23,1.48-.23,3.33-.46,4.81a2,2,0,0,1-2.34,2c-8.52-.09-17,0-25.57,0h-.62a1.28,1.28,0,0,0-1.27,1.5h0c.74,3.79,1.5,7.58,2.24,11.38s1.32,7.4,2.11,11.08c.64,3,2.39,5.36,5.44,5.6A96.82,96.82,0,0,0,75,41.51c3.13-.23,5.06-2.58,5.71-5.71.7-3.33,1.2-6.7,2-10,.31-1.31-.06-1.55-1.2-1.54-3.52,0-7,0-10.54,0-3.69,0-3.1-.61-3.28,3.32-.07,1.54.55,1.84,1.89,1.79,1.8-.07,3.6,0,5.54,0a1.29,1.29,0,0,1,1.27,1.48c-.21,1.31-.39,2.52-.64,3.72a2.45,2.45,0,0,1-2.66,2.1c-3.51,0-7,0-10.53,0a2.62,2.62,0,0,1-2.76-2.4c-.78-4.31-1.59-8.61-2.36-12.93-.17-.9-.29-1.82-.41-2.79A1.29,1.29,0,0,1,58.27,17.07Z"/><path class="cls-2" d="M62.84,44.09a2.67,2.67,0,0,0-2.67,2.58,2.57,2.57,0,0,0,5.14,0A2.6,2.6,0,0,0,62.84,44.09Z"/><path class="cls-2" d="M72.83,44.08a2.67,2.67,0,0,0-2.54,2.55,2.55,2.55,0,0,0,2.49,2.56,2.45,2.45,0,0,0,2.6-2.42A2.56,2.56,0,0,0,72.83,44.08Z"/><path class="cls-2" d="M114.19,21a15.62,15.62,0,0,0-8-8A14.81,14.81,0,0,0,86.6,21a15.19,15.19,0,0,0-1.15,5.86,14.89,14.89,0,0,0,1.18,5.94,14.58,14.58,0,0,0,3.23,4.72,15,15,0,0,0,4.74,3.1,14,14,0,0,0,12.08-.54,19.9,19.9,0,0,0,3.73-2.73v2a2.5,2.5,0,0,0,4.26,1.77,2.39,2.39,0,0,0,.73-1.77V26.83A14.37,14.37,0,0,0,114.19,21Zm-3.78,5.82a11,11,0,0,1-.92,4,9.91,9.91,0,0,1-2.17,3.14A10,10,0,0,1,104.17,36a9.93,9.93,0,0,1-10.81-2.17,10,10,0,0,1-2.14-3.17,9.65,9.65,0,0,1-.78-3.86,10,10,0,0,1,2.92-7.1,10.09,10.09,0,0,1,3.18-2.15,10.06,10.06,0,0,1,10.95,2.15,10.07,10.07,0,0,1,2.15,3.2A10,10,0,0,1,110.41,26.81Z"/><path class="cls-2" d="M38,10.29a2.6,2.6,0,0,0,1.33-.36A7.14,7.14,0,0,0,41,8.21a2.37,2.37,0,0,0,.66-1.67,2.83,2.83,0,0,0-.7-1.85,2.7,2.7,0,0,0-2.63-.81,4.5,4.5,0,0,0-3,3.59,2.88,2.88,0,0,0,.66,1.8A2.57,2.57,0,0,0,38,10.29Z"/><path class="cls-2" d="M49,21a15.79,15.79,0,0,0-3.24-4.77A16.2,16.2,0,0,0,41.07,13a14.81,14.81,0,0,0-19.61,8,15.19,15.19,0,0,0-1.15,5.86,14.89,14.89,0,0,0,1.18,5.94,14.58,14.58,0,0,0,3.23,4.72,14.86,14.86,0,0,0,4.74,3.1,14,14,0,0,0,12.08-.54,19.9,19.9,0,0,0,3.73-2.73v2a2.5,2.5,0,1,0,5,0V26.83A14.21,14.21,0,0,0,49,21Zm-3.77,5.82a11.38,11.38,0,0,1-.92,4,10.25,10.25,0,0,1-2.17,3.14A10.13,10.13,0,0,1,39,36a9.91,9.91,0,0,1-10.81-2.17,10,10,0,0,1-2.15-3.17,10.07,10.07,0,0,1,2.15-11,10,10,0,0,1,3.17-2.15,10,10,0,0,1,13.88,9.23Z"/><path class="cls-2" d="M277.79,42.24a.67.67,0,0,1-.5-.21.66.66,0,0,1-.2-.49.68.68,0,0,1,.2-.49.7.7,0,0,1,.5-.2h6.13a2.52,2.52,0,0,0,1-.21,2.93,2.93,0,0,0,.84-.58,2.53,2.53,0,0,0,.56-.84,2.5,2.5,0,0,0,.2-1,2.62,2.62,0,0,0-.74-1.83,2.63,2.63,0,0,0-.79-.56,2.71,2.71,0,0,0-1-.24h-6.25a.66.66,0,0,1-.5-.2.7.7,0,0,1,0-1,.66.66,0,0,1,.5-.2h9.47a.69.69,0,1,1,0,1.38H287a4,4,0,0,1,.71,1.19,3.84,3.84,0,0,1,.27,1.44,3.91,3.91,0,0,1-.31,1.56,4,4,0,0,1-.86,1.29,4,4,0,0,1-1.29.86,3.93,3.93,0,0,1-1.57.32Z"/><path class="cls-2" d="M277.14,27.66a4.49,4.49,0,0,1,.27-1.61,5.73,5.73,0,0,1,.61-1.24,3.47,3.47,0,0,1,.7-.79,1,1,0,0,1,.52-.28.57.57,0,0,1,.43.2.66.66,0,0,1,.18.45.68.68,0,0,1-.2.49,4.54,4.54,0,0,0-.8,1.28,4,4,0,0,0-.3,1.54,3.88,3.88,0,0,0,.31,1.56,4.3,4.3,0,0,0,.86,1.28,4.22,4.22,0,0,0,1.29.86,4,4,0,0,0,1.57.31,3.91,3.91,0,0,0,1.56-.31,4.13,4.13,0,0,0,1.27-.86,4,4,0,0,0,.86-1.28,3.89,3.89,0,0,0,.32-1.56,4,4,0,0,0-.3-1.54,4.44,4.44,0,0,0-.84-1.28.65.65,0,0,1-.21-.49.73.73,0,0,1,.19-.48.64.64,0,0,1,.49-.22,1.06,1.06,0,0,1,.52.26,2.93,2.93,0,0,1,.68.77,5.31,5.31,0,0,1,.83,3,5.42,5.42,0,0,1-.4,2.1,5.34,5.34,0,0,1-1.12,1.71,5.19,5.19,0,0,1-1.7,1.16,5.26,5.26,0,0,1-2.15.43,5.34,5.34,0,0,1-2.09-.41,5.42,5.42,0,0,1-1.71-1.15,5.6,5.6,0,0,1-1.16-1.72A5.93,5.93,0,0,1,277.14,27.66Z"/><path class="cls-2" d="M285.92,13.46a7,7,0,0,1,1.42,1.78,4.5,4.5,0,0,1,.59,2.25,5.37,5.37,0,0,1-.4,2.09,5.49,5.49,0,0,1-1.12,1.72,5.29,5.29,0,0,1-1.7,1.16,5.58,5.58,0,0,1-4.27,0,5.36,5.36,0,0,1-1.74-1.14,5.43,5.43,0,0,1-1.16-1.72,5.56,5.56,0,0,1-.42-2.17,5,5,0,0,1,.43-2,5.63,5.63,0,0,1,2.9-2.89,5.18,5.18,0,0,1,2.11-.44h4.72a.7.7,0,1,1,0,1.39Zm-3.36,0a4,4,0,0,0-1.57.31,4,4,0,0,0-2.15,2.15,4,4,0,0,0-.31,1.57,3.91,3.91,0,0,0,.31,1.56,4.13,4.13,0,0,0,.86,1.27,4.08,4.08,0,0,0,1.29.87,4.15,4.15,0,0,0,1.57.31,3.94,3.94,0,0,0,2.83-1.18,4,4,0,0,0,.86-1.27,3.92,3.92,0,0,0,.32-1.56,3.72,3.72,0,0,0-.31-1.52,4,4,0,0,0-2.1-2.14A4.41,4.41,0,0,0,282.56,13.46Z"/><path class="cls-2" d="M274.34,10.82a.68.68,0,0,1-.49-.2.67.67,0,0,1-.21-.5.65.65,0,0,1,.21-.49.68.68,0,0,1,.49-.2h4.84a7.07,7.07,0,0,1-1.4-1.77,4.82,4.82,0,0,1-.64-2.28,5,5,0,0,1,.43-2,5.85,5.85,0,0,1,1.18-1.72A5.62,5.62,0,0,1,280.48.44a5.1,5.1,0,0,1,2.1-.44,5,5,0,0,1,2.07.43,5.42,5.42,0,0,1,1.71,1.15,5.11,5.11,0,0,1,1.17,1.71A5.4,5.4,0,0,1,288,5.42a5.53,5.53,0,0,1-.45,2.24,5.27,5.27,0,0,1-1.27,1.77h1a.68.68,0,0,1,.49.2.64.64,0,0,1,.2.49.66.66,0,0,1-.2.5.68.68,0,0,1-.49.2Zm8.42-1.39a3.76,3.76,0,0,0,1.5-.36,4.39,4.39,0,0,0,1.21-.87,4.35,4.35,0,0,0,.82-1.26,3.89,3.89,0,0,0,.3-1.52,4,4,0,0,0-.32-1.57,3.89,3.89,0,0,0-.86-1.29,4.13,4.13,0,0,0-1.27-.86,3.91,3.91,0,0,0-1.56-.31A4,4,0,0,0,281,1.7a4.22,4.22,0,0,0-1.29.86,4.22,4.22,0,0,0-.86,1.29,4,4,0,0,0-.31,1.57,3.92,3.92,0,0,0,1.14,2.78,4.45,4.45,0,0,0,1.28.87,4.26,4.26,0,0,0,1.61.36Z"/><path class="cls-2" d="M193.28,23a1.19,1.19,0,0,0-.3.39,1.36,1.36,0,0,0-.11.56.35.35,0,0,0,.08.24,1.3,1.3,0,0,0,.31.31,3.88,3.88,0,0,0,.5.29l.07,0V22.68l-.09,0A1.77,1.77,0,0,0,193.28,23Z"/><path class="cls-2" d="M195.8,27.76v3.53l.23-.11a2.22,2.22,0,0,0,.58-.46,1.86,1.86,0,0,0,.38-.6,1.59,1.59,0,0,0,.14-.68,1.4,1.4,0,0,0-.45-1.11A4.61,4.61,0,0,0,195.8,27.76Z"/><path class="cls-2" d="M208,21a15.34,15.34,0,0,0-3.23-4.74,16.62,16.62,0,0,0-4.7-3.24,14.21,14.21,0,0,0-5.75-1.19,17,17,0,0,0-5.89,1.3,12.91,12.91,0,0,0-1.77.93,16.15,16.15,0,0,0-3,2.27,15.76,15.76,0,0,0-2.53,3.48V33.91a13.26,13.26,0,0,0,2.66,3.58,13.77,13.77,0,0,0,2.77,2.12,17.41,17.41,0,0,0,1.93,1,15.42,15.42,0,0,0,5.78,1.12,15.16,15.16,0,0,0,5.89-1.2,13.49,13.49,0,0,0,4.63-3.2,14.33,14.33,0,0,0,3.24-4.7,14.57,14.57,0,0,0,1.16-5.74A14.42,14.42,0,0,0,208,21Zm-9.22,9.85a3.88,3.88,0,0,1-.8,1.2,4.47,4.47,0,0,1-1.15.87,4.56,4.56,0,0,1-1,.38v1a1,1,0,0,1-1.69.7,1,1,0,0,1-.28-.7v-1a6.78,6.78,0,0,1-.76-.21,5.77,5.77,0,0,1-1.16-.53,4.29,4.29,0,0,1-.95-.76,1.59,1.59,0,0,1-.44-1.08,1,1,0,0,1,.24-.64.93.93,0,0,1,.78-.34,1,1,0,0,1,.86.5,1.28,1.28,0,0,0,.29.39,2.69,2.69,0,0,0,.47.34,3.43,3.43,0,0,0,.55.25l.12,0V27c-.28-.11-.56-.22-.84-.35a4.87,4.87,0,0,1-1-.65,3.39,3.39,0,0,1-.77-.88,2.37,2.37,0,0,1-.31-1.19,3,3,0,0,1,.29-1.31,3,3,0,0,1,.76-1,3.87,3.87,0,0,1,1-.67,4.17,4.17,0,0,1,.86-.3v-.85a1,1,0,0,1,.28-.7,1,1,0,0,1,1.4,0,1,1,0,0,1,.29.7v.8A5,5,0,0,1,197,21a3.76,3.76,0,0,1,1.48,1.25,1.13,1.13,0,0,1,.21.64,1,1,0,0,1-.28.72,1,1,0,0,1-1.59-.19,1.62,1.62,0,0,0-.67-.64,3.57,3.57,0,0,0-.38-.14v2.93a11.7,11.7,0,0,1,1.17.52,4.35,4.35,0,0,1,1.11.79,3.27,3.27,0,0,1,.75,1.09,3.71,3.71,0,0,1,.27,1.47A3.55,3.55,0,0,1,198.8,30.89Z"/></svg>