<svg id="Capa_1" data-name="Capa 1" xmlns="http://www.w3.org/2000/svg" viewBox="0 0 288 49.3"><defs><style>.cls-1{fill:#7fa5dd;}.cls-2{fill:#2b59c3;}.cls-3{fill:#61e8e1;}</style></defs><path class="cls-1" d="M202.79,3.06A3,3,0,0,1,202,5.18a2.89,2.89,0,0,1-2.12.87H186.73V39a3.83,3.83,0,0,1-.08.67,3,3,0,0,1-.79,1.45,2.92,2.92,0,0,1-2.08.83,3,3,0,0,1-2.12-.83,3.13,3.13,0,0,1-.87-2.12v-33H167a2.8,2.8,0,0,1-2.08-.87A2.89,2.89,0,0,1,164,3.06,2.92,2.92,0,0,1,164.84,1,3,3,0,0,1,167,.11h32.88A2.89,2.89,0,0,1,202,1,2.92,2.92,0,0,1,202.79,3.06Z"/><path class="cls-2" d="M236.08,4.74a2.73,2.73,0,0,0-.81,2v9.14a21.22,21.22,0,0,0-3.14-2.21,13.81,13.81,0,0,0-6.43-1.79A14,14,0,0,0,220,13.08a15.62,15.62,0,0,0-8,8,14.68,14.68,0,0,0,0,11.65,15.65,15.65,0,0,0,3.2,4.75,14.86,14.86,0,0,0,4.76,3.23,15.43,15.43,0,0,0,11.7.07,15.18,15.18,0,0,0,3.67-2.13v.53a2.78,2.78,0,1,0,5.56,0V6.71a2.73,2.73,0,0,0-.81-2A2.84,2.84,0,0,0,236.08,4.74ZM235.27,27a9.33,9.33,0,0,1-.73,3.65,9.77,9.77,0,0,1-2,3,9.51,9.51,0,0,1-15.46-3,9.21,9.21,0,0,1-.73-3.67,9.43,9.43,0,0,1,.73-3.7,9.67,9.67,0,0,1,2-3,9.55,9.55,0,0,1,6.74-2.77,9.18,9.18,0,0,1,3.58.71,9.31,9.31,0,0,1,2.95,2,9.91,9.91,0,0,1,2,3A10.75,10.75,0,0,1,235.27,27Z"/><path class="cls-2" d="M271.19,21.11a15.62,15.62,0,0,0-8-8,14,14,0,0,0-5.73-1.23h0a16.59,16.59,0,0,0-6,1.34,15.5,15.5,0,0,0-4.78,3.23A14.82,14.82,0,0,0,242.33,27a15.09,15.09,0,0,0,1.19,6,14.82,14.82,0,0,0,3.25,4.74,15,15,0,0,0,4.76,3.11,15.18,15.18,0,0,0,5.81,1.12,14.77,14.77,0,0,0,5.92-1.19A15,15,0,0,0,268,37.51a15.87,15.87,0,0,0,3.19-4.75,14.68,14.68,0,0,0,0-11.65ZM266.86,27a9.17,9.17,0,0,1-.74,3.66,9.52,9.52,0,0,1-12.44,5.06,9.76,9.76,0,0,1-3-2,9.62,9.62,0,0,1-2-3,9.22,9.22,0,0,1-.74-3.67,9.4,9.4,0,0,1,.74-3.7,9.53,9.53,0,0,1,2-3,9.76,9.76,0,0,1,3-2,9.58,9.58,0,0,1,7.36,0A9.47,9.47,0,0,1,266.86,27Z"/><path class="cls-2" d="M18.35,20.5a8.32,8.32,0,0,0-.69-3.36,8.94,8.94,0,0,0-4.61-4.61,8.44,8.44,0,0,0-3.4-.69h-7a2.61,2.61,0,0,0-1.92.83A2.7,2.7,0,0,0,0,14.55V39.21a2.65,2.65,0,0,0,2.67,2.67,2.65,2.65,0,0,0,2.66-2.67v-10H9.65a8.44,8.44,0,0,0,3.4-.69,8.79,8.79,0,0,0,2.73-1.83,8.62,8.62,0,0,0,2.57-6.14Zm-8.7,3.33H5.33V17.17H9.65a3.28,3.28,0,0,1,1.27.26,3.35,3.35,0,0,1,1.08.72,3.52,3.52,0,0,1,.72,1.08A3.23,3.23,0,0,1,13,20.5a3.08,3.08,0,0,1-.25,1.28A3.42,3.42,0,0,1,12,22.85a3.38,3.38,0,0,1-1.08.73A3.23,3.23,0,0,1,9.65,23.83Z"/><path class="cls-2" d="M134,36.55h-9.54v-22a2.61,2.61,0,0,0-.78-1.89,2.72,2.72,0,0,0-3.78,0,2.64,2.64,0,0,0-.77,1.89v24.7a2.65,2.65,0,0,0,2.66,2.67H134a2.67,2.67,0,0,0,0-5.33Z"/><path class="cls-2" d="M165.18,21.09A15.18,15.18,0,0,0,162,16.32a15.42,15.42,0,0,0-4.76-3.21,15.07,15.07,0,0,0-11.68,0,14.9,14.9,0,0,0-4.75,3.22,15.42,15.42,0,0,0-3.19,4.76,15,15,0,0,0,0,11.67,15,15,0,0,0,7.94,7.94,15,15,0,0,0,11.68,0A15.38,15.38,0,0,0,162,37.51a14.9,14.9,0,0,0,3.22-4.75,15,15,0,0,0,0-11.67ZM161,26.93a9.62,9.62,0,0,1-2.81,6.82,9.8,9.8,0,0,1-10.61,2,9.67,9.67,0,0,1-5.12-12.63,9.83,9.83,0,0,1,2.06-3.1A9.32,9.32,0,0,1,147.61,18a9.78,9.78,0,0,1,7.51,0,9.7,9.7,0,0,1,3.09,2.07A9.66,9.66,0,0,1,161,26.93Z"/><path class="cls-2" d="M58.28,17.19h.62c6.66,0,13.32,0,20,0a5.86,5.86,0,0,0,6-4.3c.63-2,.66-4.48,1.09-6.54S86.39,4,84.08,4a10.72,10.72,0,0,1-1.7,0c-1-.16-1.42.32-1.56,1.22-.24,1.48-.24,3.33-.46,4.81A2,2,0,0,1,78,12c-8.53-.09-17,0-25.57,0h-.63a1.28,1.28,0,0,0-1.26,1.5h0c.73,3.8,1.5,7.59,2.23,11.38s1.33,7.41,2.12,11.08c.63,3,2.38,5.36,5.44,5.61a96.69,96.69,0,0,0,14.64.1c3.13-.22,5.07-2.58,5.72-5.71.7-3.33,1.2-6.7,2-10,.31-1.31-.06-1.55-1.2-1.54-3.51,0-7,0-10.53,0-3.7,0-3.1-.61-3.28,3.33-.07,1.53.55,1.83,1.89,1.78,1.8-.07,3.6,0,5.54,0A1.28,1.28,0,0,1,76.36,31c-.2,1.3-.39,2.52-.64,3.72a2.44,2.44,0,0,1-2.65,2.09c-3.51,0-7,0-10.54,0a2.6,2.6,0,0,1-2.75-2.4c-.79-4.31-1.6-8.61-2.37-12.92-.16-.91-.28-1.83-.41-2.8A1.29,1.29,0,0,1,58.28,17.19Z"/><path class="cls-2" d="M62.84,44.2a2.67,2.67,0,0,0-2.66,2.58,2.57,2.57,0,0,0,5.13,0A2.59,2.59,0,0,0,62.84,44.2Z"/><path class="cls-2" d="M72.84,44.2a2.66,2.66,0,0,0-2.55,2.54,2.56,2.56,0,0,0,2.49,2.56,2.45,2.45,0,0,0,2.61-2.42A2.56,2.56,0,0,0,72.84,44.2Z"/><path class="cls-2" d="M114.2,21.1a15.55,15.55,0,0,0-8-8,14.8,14.8,0,0,0-19.61,8,15.19,15.19,0,0,0-1.15,5.86,14.94,14.94,0,0,0,1.18,5.95,14.53,14.53,0,0,0,3.23,4.71,14.86,14.86,0,0,0,4.74,3.1,14,14,0,0,0,12.08-.54,19.86,19.86,0,0,0,3.73-2.72v2a2.45,2.45,0,0,0,.73,1.77,2.41,2.41,0,0,0,1.77.72,2.49,2.49,0,0,0,2.49-2.49V26.94A14.37,14.37,0,0,0,114.2,21.1Zm-3.78,5.82a11,11,0,0,1-.92,4,10.41,10.41,0,0,1-2.17,3.15,10.1,10.1,0,0,1-3.15,2.08,9.92,9.92,0,0,1-7.64,0,10.17,10.17,0,0,1-5.32-5.32,10.1,10.1,0,0,1,0-7.76,10,10,0,0,1,5.32-5.35,9.74,9.74,0,0,1,3.86-.77,9.86,9.86,0,0,1,3.89.78,10.1,10.1,0,0,1,3.2,2.14,10,10,0,0,1,2.14,3.2A9.78,9.78,0,0,1,110.42,26.92Z"/><path class="cls-2" d="M38,10.4A2.58,2.58,0,0,0,39.34,10,6.78,6.78,0,0,0,41,8.32a2.37,2.37,0,0,0,.66-1.67,2.83,2.83,0,0,0-.7-1.85A2.7,2.7,0,0,0,38.28,4a4.48,4.48,0,0,0-3,3.6,2.92,2.92,0,0,0,.65,1.79A2.56,2.56,0,0,0,38,10.4Z"/><path class="cls-2" d="M49.05,21.1a15.55,15.55,0,0,0-8-8,14.8,14.8,0,0,0-19.61,8,15.19,15.19,0,0,0-1.15,5.86,14.94,14.94,0,0,0,1.18,5.95,14.53,14.53,0,0,0,3.23,4.71,14.86,14.86,0,0,0,4.74,3.1,14,14,0,0,0,12.08-.54,19.86,19.86,0,0,0,3.73-2.72v2A2.45,2.45,0,0,0,46,41.22a2.49,2.49,0,0,0,4.26-1.77V26.94A14.37,14.37,0,0,0,49.05,21.1Zm-3.78,5.82a11,11,0,0,1-.92,4,10.07,10.07,0,0,1-2.17,3.15A9.92,9.92,0,0,1,31.4,36.12a10.08,10.08,0,0,1-5.32-5.32,9.65,9.65,0,0,1-.78-3.86,9.88,9.88,0,0,1,.78-3.9,10,10,0,0,1,2.14-3.2,10.09,10.09,0,0,1,3.18-2.15,10.08,10.08,0,0,1,7.75,0A9.95,9.95,0,0,1,44.5,23,10,10,0,0,1,45.27,26.92Z"/><path class="cls-3" d="M277.81,42.35a.68.68,0,0,1-.49-.2.69.69,0,0,1,0-1,.68.68,0,0,1,.49-.2H284a2.66,2.66,0,0,0,2.62-2.64,2.44,2.44,0,0,0-.21-1,2.69,2.69,0,0,0-.53-.82,2.87,2.87,0,0,0-.8-.56,2.47,2.47,0,0,0-1-.23h-6.25a.68.68,0,0,1-.49-.2.67.67,0,0,1-.21-.5.65.65,0,0,1,.21-.49.68.68,0,0,1,.49-.2h9.47a.7.7,0,0,1,.5.2.68.68,0,0,1,.2.49.68.68,0,0,1-.7.7H287a4.15,4.15,0,0,1,.72,1.18,3.84,3.84,0,0,1,.27,1.44,4,4,0,0,1-.32,1.57,3.75,3.75,0,0,1-.86,1.28,3.86,3.86,0,0,1-1.29.87,3.91,3.91,0,0,1-1.56.31Z"/><path class="cls-3" d="M277.16,27.77a4.53,4.53,0,0,1,.27-1.61,5.87,5.87,0,0,1,.61-1.23,3.84,3.84,0,0,1,.7-.8,1,1,0,0,1,.53-.28.56.56,0,0,1,.42.2.68.68,0,0,1,0,.94,4.68,4.68,0,0,0-.8,1.28,4,4,0,0,0-.3,1.55,3.83,3.83,0,0,0,.31,1.55,4,4,0,0,0,3.72,2.45,3.91,3.91,0,0,0,1.56-.31,4.3,4.3,0,0,0,1.28-.86,4.18,4.18,0,0,0,.86-1.28,3.83,3.83,0,0,0,.31-1.55,4,4,0,0,0-.3-1.55,4.18,4.18,0,0,0-.84-1.28.64.64,0,0,1-.2-.49.68.68,0,0,1,.19-.48.6.6,0,0,1,.48-.21,1.08,1.08,0,0,1,.53.25,3,3,0,0,1,.68.78,5.28,5.28,0,0,1,.58,1.26,5.61,5.61,0,0,1,.25,1.72,5.41,5.41,0,0,1-.41,2.09,5.18,5.18,0,0,1-1.12,1.71,5.11,5.11,0,0,1-1.7,1.17,5.41,5.41,0,0,1-5.94-1.13,5.5,5.5,0,0,1-1.17-1.73A5.88,5.88,0,0,1,277.16,27.77Z"/><path class="cls-3" d="M285.94,13.57a7,7,0,0,1,1.42,1.78A4.4,4.4,0,0,1,288,17.6a5.42,5.42,0,0,1-1.52,3.81,5.19,5.19,0,0,1-1.7,1.16,5.26,5.26,0,0,1-2.15.43,5.42,5.42,0,0,1-2.12-.42,5.21,5.21,0,0,1-1.73-1.14,5.3,5.3,0,0,1-1.17-1.72,5.54,5.54,0,0,1-.42-2.16,5,5,0,0,1,.43-2,6,6,0,0,1,1.18-1.72,5.7,5.7,0,0,1,1.72-1.17,5.18,5.18,0,0,1,2.11-.44h4.73a.7.7,0,1,1,0,1.39Zm-3.36,0a4,4,0,0,0-1.57.31A4,4,0,0,0,278.86,16a4,4,0,0,0-.31,1.57,3.91,3.91,0,0,0,.31,1.56,4.13,4.13,0,0,0,.86,1.27,4.08,4.08,0,0,0,1.29.87,4.15,4.15,0,0,0,1.57.31,4.1,4.1,0,0,0,1.56-.31,4.19,4.19,0,0,0,2.14-2.14,4.1,4.1,0,0,0,.31-1.56,3.89,3.89,0,0,0-.3-1.52,4.39,4.39,0,0,0-.84-1.27,4.21,4.21,0,0,0-1.27-.87A4.37,4.37,0,0,0,282.58,13.57Z"/><path class="cls-3" d="M274.36,10.93a.68.68,0,0,1-.49-.2.66.66,0,0,1-.2-.5.66.66,0,0,1,.2-.49.68.68,0,0,1,.49-.2h4.84a7.07,7.07,0,0,1-1.4-1.77,4.82,4.82,0,0,1-.64-2.28,5,5,0,0,1,.44-2.05,5.82,5.82,0,0,1,1.17-1.72A5.74,5.74,0,0,1,280.5.55a5.13,5.13,0,0,1,2.1-.44,5,5,0,0,1,2.07.43,5.58,5.58,0,0,1,1.72,1.15,5.23,5.23,0,0,1,1.16,1.71A5.4,5.4,0,0,1,288,5.53a5.54,5.54,0,0,1-.46,2.24,5.27,5.27,0,0,1-1.27,1.77h1a.7.7,0,1,1,0,1.39Zm8.42-1.39a3.76,3.76,0,0,0,1.5-.36,4.11,4.11,0,0,0,1.21-.87,4.15,4.15,0,0,0,.82-1.26,3.89,3.89,0,0,0,.3-1.52A4,4,0,0,0,286.3,4a4.22,4.22,0,0,0-.86-1.29,4.3,4.3,0,0,0-1.28-.86,3.91,3.91,0,0,0-1.56-.31,4,4,0,0,0-1.57.31A4,4,0,0,0,278.88,4a4,4,0,0,0-.31,1.57,3.92,3.92,0,0,0,1.14,2.78,4.45,4.45,0,0,0,1.28.87,4.26,4.26,0,0,0,1.61.36Z"/><path class="cls-2" d="M193.3,23.11a1.07,1.07,0,0,0-.3.39,1.22,1.22,0,0,0-.11.56.38.38,0,0,0,.07.24,1.51,1.51,0,0,0,.31.31,4.7,4.7,0,0,0,.5.29l.07,0V22.8l-.08,0A1.62,1.62,0,0,0,193.3,23.11Z"/><path class="cls-2" d="M195.81,27.88V31.4l.24-.11a2.9,2.9,0,0,0,.58-.45,2.51,2.51,0,0,0,.38-.61,1.72,1.72,0,0,0,.14-.68,1.37,1.37,0,0,0-.45-1.1A4,4,0,0,0,195.81,27.88Z"/><path class="cls-2" d="M208,21.15a15.51,15.51,0,0,0-3.23-4.74,16.77,16.77,0,0,0-4.7-3.24A14.28,14.28,0,0,0,194.36,12a16.87,16.87,0,0,0-5.89,1.3,12.85,12.85,0,0,0-1.77.93,15.82,15.82,0,0,0-3,2.27A15.49,15.49,0,0,0,181.18,20V34a13.1,13.1,0,0,0,2.66,3.58,13.83,13.83,0,0,0,2.78,2.12,15.82,15.82,0,0,0,1.93,1,15.26,15.26,0,0,0,11.67-.08,13.55,13.55,0,0,0,4.62-3.2,14.2,14.2,0,0,0,3.25-4.7A14.81,14.81,0,0,0,208,21.15ZM198.82,31a4.27,4.27,0,0,1-.8,1.2,4.36,4.36,0,0,1-1.16.87,4.72,4.72,0,0,1-1.05.39v1a.94.94,0,0,1-.29.69.93.93,0,0,1-.69.29,1,1,0,0,1-1-1v-1a6.64,6.64,0,0,1-.75-.21,5.3,5.3,0,0,1-1.16-.53,3.84,3.84,0,0,1-1-.75,1.61,1.61,0,0,1-.44-1.09,1,1,0,0,1,.23-.64,1,1,0,0,1,.79-.34,1,1,0,0,1,.86.5,1.14,1.14,0,0,0,.29.39,2.61,2.61,0,0,0,.46.34,3,3,0,0,0,.55.25l.12,0V27.13c-.28-.1-.55-.22-.83-.35a5.36,5.36,0,0,1-1-.64,3.36,3.36,0,0,1-.76-.89,2.27,2.27,0,0,1-.31-1.19,3,3,0,0,1,.28-1.31,3.32,3.32,0,0,1,.76-1,4.21,4.21,0,0,1,1-.67,5.48,5.48,0,0,1,.86-.3v-.85a1,1,0,0,1,.29-.7,1,1,0,0,1,1.4,0,1,1,0,0,1,.28.7v.8a4.87,4.87,0,0,1,1.23.39,3.8,3.8,0,0,1,1.49,1.25,1.24,1.24,0,0,1,.21.64,1,1,0,0,1-1.87.53,1.71,1.71,0,0,0-.68-.64l-.38-.14v2.93a11.91,11.91,0,0,1,1.18.52,4.82,4.82,0,0,1,1.11.79,3.36,3.36,0,0,1,.75,1.1,3.66,3.66,0,0,1,.27,1.46A3.55,3.55,0,0,1,198.82,31Z"/></svg>